<?xml version="1.0" encoding="UTF-8" standalone="no"?>
<svg width="609px" height="609px" viewBox="0 0 609 609" version="1.1" xmlns="http://www.w3.org/2000/svg" xmlns:xlink="http://www.w3.org/1999/xlink" xmlns:sketch="http://www.bohemiancoding.com/sketch/ns">
    <!-- Generator: Sketch 3.2.2 (9983) - http://www.bohemiancoding.com/sketch -->
    <title>Imported Layers</title>
    <desc>Created with Sketch.</desc>
    <defs></defs>
    <g id="Page-1" stroke="none" stroke-width="1" fill="none" fill-rule="evenodd" sketch:type="MSPage">
        <g id="Imported-Layers" sketch:type="MSLayerGroup">
            <path d="M453.246,305.38 C449.139,290.418 442.977,276.042 435.056,263.133 C404.838,207.096 352.615,146.953 324.156,116.147 C313.595,104.705 295.405,104.705 284.843,116.147 C256.385,146.953 204.163,207.096 173.944,263.133 C166.022,276.042 159.568,290.124 155.754,305.38 C152.527,315.942 150.767,325.917 150.767,335.012 L150.767,339.706 L150.767,344.4 C150.767,429.189 219.712,498.134 304.5,498.134 C389.288,498.134 458.233,429.189 458.233,344.4 L458.233,339.706 L458.233,335.012 C458.233,325.917 456.473,315.942 453.246,305.38 Z" id="Fill-1" fill="#526DC3" sketch:type="MSShapeGroup"></path>
            <path d="M304.5,581.281 C151.972,581.279 27.721,457.027 27.719,304.5 C27.721,151.972 151.972,27.721 304.5,27.719 C457.027,27.721 581.278,151.972 581.281,304.5 C581.278,457.027 457.027,581.279 304.5,581.281 M304.5,2.434 C221.159,2.434 145.648,36.279 90.963,90.963 C36.279,145.648 2.435,221.159 2.434,304.5 C2.435,387.842 36.279,463.352 90.963,518.037 C145.648,572.721 221.159,606.565 304.5,606.566 C387.841,606.565 463.352,572.721 518.037,518.037 C572.721,463.352 606.565,387.841 606.566,304.5 C606.565,221.159 572.721,145.648 518.037,90.963 C463.352,36.279 387.841,2.434 304.5,2.434" id="Fill-2" fill="#526DC3" sketch:type="MSShapeGroup"></path>
            <path d="M304.5,579.281 C228.788,579.281 160.098,548.443 110.327,498.673 C60.557,448.901 29.719,380.212 29.719,304.5 C29.719,228.788 60.557,160.098 110.327,110.327 C160.098,60.557 228.788,29.719 304.5,29.719 C380.212,29.719 448.901,60.557 498.673,110.327 C548.443,160.098 579.28,228.788 579.281,304.5 C579.28,380.212 548.443,448.901 498.673,498.673 C448.901,548.443 380.212,579.281 304.5,579.281 M304.5,27.719 C151.972,27.721 27.721,151.972 27.719,304.5 C27.721,457.027 151.972,581.279 304.5,581.281 C457.027,581.279 581.278,457.027 581.281,304.5 C581.278,151.972 457.027,27.721 304.5,27.719 M304.5,606.566 L304.5,606.566 C221.159,606.565 145.648,572.721 90.963,518.037 C36.279,463.352 2.435,387.842 2.434,304.5 C2.435,221.159 36.279,145.648 90.963,90.963 C145.648,36.279 221.159,2.434 304.5,2.434 C387.841,2.434 463.352,36.279 518.037,90.963 C572.721,145.648 606.565,221.159 606.566,304.5 C606.565,387.841 572.721,463.352 518.037,518.037 C463.352,572.721 387.841,606.565 304.5,606.566 M304.5,0.434 C136.717,0.435 0.435,136.717 0.434,304.5 C0.435,472.283 136.717,608.565 304.5,608.566 C472.283,608.565 608.565,472.283 608.566,304.5 C608.565,136.718 472.283,0.435 304.5,0.434" id="Fill-3" fill="#4C61A1" sketch:type="MSShapeGroup"></path>
            <path d="M233.501,344.4 C233.501,383.612 265.288,415.399 304.5,415.399 C343.712,415.399 375.499,383.612 375.499,344.4 C375.499,305.189 343.712,273.401 304.5,273.401 C265.288,273.401 233.501,305.189 233.501,344.4 Z" id="Fill-4" sketch:type="MSShapeGroup"></path>
            <path d="M304.5,296.285 C331.073,296.285 352.615,317.827 352.615,344.4 C352.615,370.974 331.073,392.516 304.5,392.516 C277.927,392.516 256.385,370.974 256.385,344.4 C256.385,317.827 277.927,296.285 304.5,296.285" id="Fill-5" fill="#FFFFFF" sketch:type="MSShapeGroup"></path>
        </g>
    </g>
</svg>